<?xml version="1.0" standalone="no"?>
<!DOCTYPE svg PUBLIC "-//W3C//DTD SVG 20010904//EN"
 "http://www.w3.org/TR/2001/REC-SVG-20010904/DTD/svg10.dtd">
<svg version="1.0" xmlns="http://www.w3.org/2000/svg"
 width="109.000000pt" height="118.000000pt" viewBox="0 0 109.000000 118.000000"
 preserveAspectRatio="xMidYMid meet">

<g transform="translate(0.000000,118.000000) scale(0.100000,-0.100000)"
fill="#000000" stroke="none">
<path d="M1034 1139 c-62 -47 -212 -207 -260 -278 -2 -2 -16 6 -32 18 -27 19
-48 21 -293 27 -145 4 -261 3 -257 -1 11 -11 173 -33 303 -40 181 -9 203 -13
220 -39 15 -22 12 -28 -55 -127 -39 -57 -87 -132 -108 -166 -20 -35 -39 -63
-43 -63 -4 0 -12 21 -18 47 -25 99 -64 133 -116 99 -34 -22 -32 -55 9 -171 43
-119 65 -157 98 -169 47 -17 70 10 122 141 47 121 131 283 145 283 5 0 12 -25
16 -55 8 -70 8 -464 -1 -511 -6 -32 -8 -34 -48 -34 -132 0 -531 32 -580 47
-22 6 -21 42 21 446 18 178 23 261 16 268 -15 15 -85 22 -102 10 -10 -6 -19
-62 -31 -198 -49 -534 -48 -582 21 -616 20 -9 71 -21 115 -26 130 -16 534 -33
591 -26 89 11 86 -1 80 314 -4 188 -10 302 -21 356 -9 44 -16 90 -16 102 0 12
41 74 96 145 102 129 169 227 161 234 -2 2 -17 -6 -33 -17z"/>
</g>
</svg>
